<svg width="440" height="440" xmlns="http://www.w3.org/2000/svg"><rect width="40" height="40" x="10" y="10" fill="white" stroke="gray" />
<text x="10" y="45" font-size="40" transform="rotate(180,30,30)"  fill="black"> 香 </text><rect width="40" height="40" x="50" y="10" fill="white" stroke="gray" />
<text x="50" y="45" font-size="40" transform="rotate(180,70,30)"  fill="black"> 桂 </text><rect width="40" height="40" x="90" y="10" fill="white" stroke="gray" />
<text x="90" y="45" font-size="40" transform="rotate(180,110,30)"  fill="black"> 銀 </text><rect width="40" height="40" x="130" y="10" fill="white" stroke="gray" />
<text x="130" y="45" font-size="40" transform="rotate(180,150,30)"  fill="black"> 金 </text><rect width="40" height="40" x="170" y="10" fill="white" stroke="gray" />
<text x="170" y="45" font-size="40" transform="rotate(180,190,30)"  fill="black"> 王 </text><rect width="40" height="40" x="210" y="10" fill="white" stroke="gray" />
<text x="210" y="45" font-size="40" transform="rotate(180,230,30)"  fill="black"> 金 </text><rect width="40" height="40" x="250" y="10" fill="white" stroke="gray" />
<text x="250" y="45" font-size="40" transform="rotate(180,270,30)"  fill="black"> 銀 </text><rect width="40" height="40" x="290" y="10" fill="white" stroke="gray" />
<text x="290" y="45" font-size="40" transform="rotate(180,310,30)"  fill="black"> 桂 </text><rect width="40" height="40" x="330" y="10" fill="white" stroke="gray" />
<text x="330" y="45" font-size="40" transform="rotate(180,350,30)"  fill="black"> 香 </text><rect width="40" height="40" x="10" y="50" fill="white" stroke="gray" />
<rect width="40" height="40" x="50" y="50" fill="white" stroke="gray" />
<text x="50" y="85" font-size="40" transform="rotate(180,70,70)"  fill="black"> 飛 </text><rect width="40" height="40" x="90" y="50" fill="white" stroke="gray" />
<rect width="40" height="40" x="130" y="50" fill="white" stroke="gray" />
<rect width="40" height="40" x="170" y="50" fill="white" stroke="gray" />
<rect width="40" height="40" x="210" y="50" fill="white" stroke="gray" />
<rect width="40" height="40" x="250" y="50" fill="white" stroke="gray" />
<rect width="40" height="40" x="290" y="50" fill="yellow" stroke="gray" />
<text x="290" y="85" font-size="40"  style="font-weight:bold;" fill="red"> 馬 </text><rect width="40" height="40" x="330" y="50" fill="white" stroke="gray" />
<rect width="40" height="40" x="10" y="90" fill="white" stroke="gray" />
<text x="10" y="125" font-size="40" transform="rotate(180,30,110)"  fill="black"> 歩 </text><rect width="40" height="40" x="50" y="90" fill="white" stroke="gray" />
<text x="50" y="125" font-size="40" transform="rotate(180,70,110)"  fill="black"> 歩 </text><rect width="40" height="40" x="90" y="90" fill="white" stroke="gray" />
<text x="90" y="125" font-size="40" transform="rotate(180,110,110)"  fill="black"> 歩 </text><rect width="40" height="40" x="130" y="90" fill="white" stroke="gray" />
<text x="130" y="125" font-size="40" transform="rotate(180,150,110)"  fill="black"> 歩 </text><rect width="40" height="40" x="170" y="90" fill="white" stroke="gray" />
<text x="170" y="125" font-size="40" transform="rotate(180,190,110)"  fill="black"> 歩 </text><rect width="40" height="40" x="210" y="90" fill="white" stroke="gray" />
<text x="210" y="125" font-size="40" transform="rotate(180,230,110)"  fill="black"> 歩 </text><rect width="40" height="40" x="250" y="90" fill="white" stroke="gray" />
<rect width="40" height="40" x="290" y="90" fill="white" stroke="gray" />
<text x="290" y="125" font-size="40" transform="rotate(180,310,110)"  fill="black"> 歩 </text><rect width="40" height="40" x="330" y="90" fill="white" stroke="gray" />
<text x="330" y="125" font-size="40" transform="rotate(180,350,110)"  fill="black"> 歩 </text><rect width="40" height="40" x="10" y="130" fill="white" stroke="gray" />
<rect width="40" height="40" x="50" y="130" fill="white" stroke="gray" />
<rect width="40" height="40" x="90" y="130" fill="white" stroke="gray" />
<rect width="40" height="40" x="130" y="130" fill="white" stroke="gray" />
<rect width="40" height="40" x="170" y="130" fill="white" stroke="gray" />
<rect width="40" height="40" x="210" y="130" fill="white" stroke="gray" />
<rect width="40" height="40" x="250" y="130" fill="white" stroke="gray" />
<text x="250" y="165" font-size="40" transform="rotate(180,270,150)"  fill="black"> 歩 </text><rect width="40" height="40" x="290" y="130" fill="white" stroke="gray" />
<rect width="40" height="40" x="330" y="130" fill="white" stroke="gray" />
<rect width="40" height="40" x="10" y="170" fill="white" stroke="gray" />
<rect width="40" height="40" x="50" y="170" fill="white" stroke="gray" />
<rect width="40" height="40" x="90" y="170" fill="white" stroke="gray" />
<rect width="40" height="40" x="130" y="170" fill="white" stroke="gray" />
<rect width="40" height="40" x="170" y="170" fill="white" stroke="gray" />
<rect width="40" height="40" x="210" y="170" fill="white" stroke="gray" />
<rect width="40" height="40" x="250" y="170" fill="white" stroke="gray" />
<rect width="40" height="40" x="290" y="170" fill="white" stroke="gray" />
<rect width="40" height="40" x="330" y="170" fill="white" stroke="gray" />
<rect width="40" height="40" x="10" y="210" fill="white" stroke="gray" />
<rect width="40" height="40" x="50" y="210" fill="white" stroke="gray" />
<rect width="40" height="40" x="90" y="210" fill="white" stroke="gray" />
<text x="90" y="245" font-size="40"   fill="black"> 歩 </text><rect width="40" height="40" x="130" y="210" fill="white" stroke="gray" />
<rect width="40" height="40" x="170" y="210" fill="white" stroke="gray" />
<rect width="40" height="40" x="210" y="210" fill="white" stroke="gray" />
<rect width="40" height="40" x="250" y="210" fill="white" stroke="gray" />
<rect width="40" height="40" x="290" y="210" fill="white" stroke="gray" />
<rect width="40" height="40" x="330" y="210" fill="white" stroke="gray" />
<rect width="40" height="40" x="10" y="250" fill="white" stroke="gray" />
<text x="10" y="285" font-size="40"   fill="black"> 歩 </text><rect width="40" height="40" x="50" y="250" fill="white" stroke="gray" />
<text x="50" y="285" font-size="40"   fill="black"> 歩 </text><rect width="40" height="40" x="90" y="250" fill="white" stroke="gray" />
<rect width="40" height="40" x="130" y="250" fill="white" stroke="gray" />
<text x="130" y="285" font-size="40"   fill="black"> 歩 </text><rect width="40" height="40" x="170" y="250" fill="white" stroke="gray" />
<text x="170" y="285" font-size="40"   fill="black"> 歩 </text><rect width="40" height="40" x="210" y="250" fill="white" stroke="gray" />
<text x="210" y="285" font-size="40"   fill="black"> 歩 </text><rect width="40" height="40" x="250" y="250" fill="white" stroke="gray" />
<text x="250" y="285" font-size="40"   fill="black"> 歩 </text><rect width="40" height="40" x="290" y="250" fill="white" stroke="gray" />
<text x="290" y="285" font-size="40"   fill="black"> 歩 </text><rect width="40" height="40" x="330" y="250" fill="white" stroke="gray" />
<text x="330" y="285" font-size="40"   fill="black"> 歩 </text><rect width="40" height="40" x="10" y="290" fill="white" stroke="gray" />
<rect width="40" height="40" x="50" y="290" fill="white" stroke="gray" />
<rect width="40" height="40" x="90" y="290" fill="white" stroke="gray" />
<rect width="40" height="40" x="130" y="290" fill="white" stroke="gray" />
<rect width="40" height="40" x="170" y="290" fill="white" stroke="gray" />
<rect width="40" height="40" x="210" y="290" fill="white" stroke="gray" />
<rect width="40" height="40" x="250" y="290" fill="white" stroke="gray" />
<rect width="40" height="40" x="290" y="290" fill="white" stroke="gray" />
<text x="290" y="325" font-size="40"   fill="black"> 飛 </text><rect width="40" height="40" x="330" y="290" fill="white" stroke="gray" />
<rect width="40" height="40" x="10" y="330" fill="white" stroke="gray" />
<text x="10" y="365" font-size="40"   fill="black"> 香 </text><rect width="40" height="40" x="50" y="330" fill="white" stroke="gray" />
<text x="50" y="365" font-size="40"   fill="black"> 桂 </text><rect width="40" height="40" x="90" y="330" fill="white" stroke="gray" />
<text x="90" y="365" font-size="40"   fill="black"> 銀 </text><rect width="40" height="40" x="130" y="330" fill="white" stroke="gray" />
<text x="130" y="365" font-size="40"   fill="black"> 金 </text><rect width="40" height="40" x="170" y="330" fill="white" stroke="gray" />
<text x="170" y="365" font-size="40"   fill="black"> 王 </text><rect width="40" height="40" x="210" y="330" fill="white" stroke="gray" />
<text x="210" y="365" font-size="40"   fill="black"> 金 </text><rect width="40" height="40" x="250" y="330" fill="white" stroke="gray" />
<text x="250" y="365" font-size="40"   fill="black"> 銀 </text><rect width="40" height="40" x="290" y="330" fill="white" stroke="gray" />
<text x="290" y="365" font-size="40"   fill="black"> 桂 </text><rect width="40" height="40" x="330" y="330" fill="white" stroke="gray" />
<text x="330" y="365" font-size="40"   fill="black"> 香 </text><rect x="10" y="400" height="40" width="360" fill="white"/><text x="10" y="440" font-size="25"> 角| </text></svg>