<svg width="400" height="400" xmlns="http://www.w3.org/2000/svg"><rect width="40" height="40" x="10" y="10" fill="white" stroke="gray" />
<rect width="40" height="40" x="50" y="10" fill="white" stroke="gray" />
<rect width="40" height="40" x="90" y="10" fill="white" stroke="gray" />
<rect width="40" height="40" x="130" y="10" fill="white" stroke="gray" />
<rect width="40" height="40" x="170" y="10" fill="white" stroke="gray" />
<rect width="40" height="40" x="210" y="10" fill="white" stroke="gray" />
<rect width="40" height="40" x="250" y="10" fill="white" stroke="gray" />
<rect width="40" height="40" x="290" y="10" fill="white" stroke="gray" />
<rect width="40" height="40" x="330" y="10" fill="white" stroke="gray" />
<rect width="40" height="40" x="10" y="50" fill="white" stroke="gray" />
<rect width="40" height="40" x="50" y="50" fill="white" stroke="gray" />
<rect width="40" height="40" x="90" y="50" fill="white" stroke="gray" />
<rect width="40" height="40" x="130" y="50" fill="white" stroke="gray" />
<rect width="40" height="40" x="170" y="50" fill="white" stroke="gray" />
<rect width="40" height="40" x="210" y="50" fill="white" stroke="gray" />
<rect width="40" height="40" x="250" y="50" fill="white" stroke="gray" />
<rect width="40" height="40" x="290" y="50" fill="white" stroke="gray" />
<rect width="40" height="40" x="330" y="50" fill="white" stroke="gray" />
<rect width="40" height="40" x="10" y="90" fill="white" stroke="gray" />
<rect width="40" height="40" x="50" y="90" fill="white" stroke="gray" />
<rect width="40" height="40" x="90" y="90" fill="white" stroke="gray" />
<rect width="40" height="40" x="130" y="90" fill="white" stroke="gray" />
<rect width="40" height="40" x="170" y="90" fill="white" stroke="gray" />
<rect width="40" height="40" x="210" y="90" fill="white" stroke="gray" />
<rect width="40" height="40" x="250" y="90" fill="white" stroke="gray" />
<rect width="40" height="40" x="290" y="90" fill="white" stroke="gray" />
<rect width="40" height="40" x="330" y="90" fill="white" stroke="gray" />
<rect width="40" height="40" x="10" y="130" fill="white" stroke="gray" />
<rect width="40" height="40" x="50" y="130" fill="white" stroke="gray" />
<rect width="40" height="40" x="90" y="130" fill="white" stroke="gray" />
<rect width="40" height="40" x="130" y="130" fill="white" stroke="gray" />
<rect width="40" height="40" x="170" y="130" fill="white" stroke="gray" />
<rect width="40" height="40" x="210" y="130" fill="white" stroke="gray" />
<rect width="40" height="40" x="250" y="130" fill="white" stroke="gray" />
<rect width="40" height="40" x="290" y="130" fill="white" stroke="gray" />
<rect width="40" height="40" x="330" y="130" fill="white" stroke="gray" />
<rect width="40" height="40" x="10" y="170" fill="white" stroke="gray" />
<rect width="40" height="40" x="50" y="170" fill="white" stroke="gray" />
<rect width="40" height="40" x="90" y="170" fill="white" stroke="gray" />
<rect width="40" height="40" x="130" y="170" fill="white" stroke="gray" />
<rect width="40" height="40" x="170" y="170" fill="white" stroke="gray" />
<rect width="40" height="40" x="210" y="170" fill="white" stroke="gray" />
<rect width="40" height="40" x="250" y="170" fill="white" stroke="gray" />
<rect width="40" height="40" x="290" y="170" fill="white" stroke="gray" />
<rect width="40" height="40" x="330" y="170" fill="white" stroke="gray" />
<rect width="40" height="40" x="10" y="210" fill="white" stroke="gray" />
<rect width="40" height="40" x="50" y="210" fill="white" stroke="gray" />
<rect width="40" height="40" x="90" y="210" fill="white" stroke="gray" />
<rect width="40" height="40" x="130" y="210" fill="white" stroke="gray" />
<rect width="40" height="40" x="170" y="210" fill="white" stroke="gray" />
<rect width="40" height="40" x="210" y="210" fill="white" stroke="gray" />
<rect width="40" height="40" x="250" y="210" fill="white" stroke="gray" />
<rect width="40" height="40" x="290" y="210" fill="white" stroke="gray" />
<rect width="40" height="40" x="330" y="210" fill="white" stroke="gray" />
<rect width="40" height="40" x="10" y="250" fill="white" stroke="gray" />
<text x="10" y="285" font-size="40"> 歩 </text><rect width="40" height="40" x="50" y="250" fill="white" stroke="gray" />
<text x="50" y="285" font-size="40"> 歩 </text><rect width="40" height="40" x="90" y="250" fill="white" stroke="gray" />
<text x="90" y="285" font-size="40"> 歩 </text><rect width="40" height="40" x="130" y="250" fill="white" stroke="gray" />
<text x="130" y="285" font-size="40"> 歩 </text><rect width="40" height="40" x="170" y="250" fill="white" stroke="gray" />
<text x="170" y="285" font-size="40"> 歩 </text><rect width="40" height="40" x="210" y="250" fill="white" stroke="gray" />
<text x="210" y="285" font-size="40"> 歩 </text><rect width="40" height="40" x="250" y="250" fill="white" stroke="gray" />
<text x="250" y="285" font-size="40"> 歩 </text><rect width="40" height="40" x="290" y="250" fill="white" stroke="gray" />
<text x="290" y="285" font-size="40"> 歩 </text><rect width="40" height="40" x="330" y="250" fill="white" stroke="gray" />
<text x="330" y="285" font-size="40"> 歩 </text><rect width="40" height="40" x="10" y="290" fill="white" stroke="gray" />
<rect width="40" height="40" x="50" y="290" fill="white" stroke="gray" />
<text x="50" y="325" font-size="40"> 角 </text><rect width="40" height="40" x="90" y="290" fill="white" stroke="gray" />
<rect width="40" height="40" x="130" y="290" fill="white" stroke="gray" />
<rect width="40" height="40" x="170" y="290" fill="white" stroke="gray" />
<rect width="40" height="40" x="210" y="290" fill="white" stroke="gray" />
<rect width="40" height="40" x="250" y="290" fill="white" stroke="gray" />
<rect width="40" height="40" x="290" y="290" fill="white" stroke="gray" />
<text x="290" y="325" font-size="40"> 飛 </text><rect width="40" height="40" x="330" y="290" fill="white" stroke="gray" />
<rect width="40" height="40" x="10" y="330" fill="white" stroke="gray" />
<text x="10" y="365" font-size="40"> 香 </text><rect width="40" height="40" x="50" y="330" fill="white" stroke="gray" />
<text x="50" y="365" font-size="40"> 桂 </text><rect width="40" height="40" x="90" y="330" fill="white" stroke="gray" />
<text x="90" y="365" font-size="40"> 銀 </text><rect width="40" height="40" x="130" y="330" fill="white" stroke="gray" />
<text x="130" y="365" font-size="40"> 金 </text><rect width="40" height="40" x="170" y="330" fill="white" stroke="gray" />
<text x="170" y="365" font-size="40"> 王 </text><rect width="40" height="40" x="210" y="330" fill="white" stroke="gray" />
<text x="210" y="365" font-size="40"> 金 </text><rect width="40" height="40" x="250" y="330" fill="white" stroke="gray" />
<text x="250" y="365" font-size="40"> 銀 </text><rect width="40" height="40" x="290" y="330" fill="white" stroke="gray" />
<text x="290" y="365" font-size="40"> 桂 </text><rect width="40" height="40" x="330" y="330" fill="white" stroke="gray" />
<text x="330" y="365" font-size="40"> 香 </text></svg>